<mxfile host="app.diagrams.net" modified="2023-11-02T04:02:48.502Z" agent="Mozilla/5.0 (Windows NT 10.0; Win64; x64) AppleWebKit/537.36 (KHTML, like Gecko) Chrome/118.0.0.0 Safari/537.36 Edg/118.0.2088.76" etag="5iqj5gy-3f9x_xl9nSfb" version="22.0.8" type="github">
  <diagram name="Page-1" id="10a91c8b-09ff-31b1-d368-03940ed4cc9e">
    <mxGraphModel dx="2207" dy="1122" grid="1" gridSize="10" guides="1" tooltips="1" connect="1" arrows="1" fold="1" page="1" pageScale="1" pageWidth="1100" pageHeight="850" background="none" math="0" shadow="0">
      <root>
        <mxCell id="0" />
        <mxCell id="1" parent="0" />
        <mxCell id="oZu985MOciVJZe-gld0W-3" style="edgeStyle=orthogonalEdgeStyle;rounded=0;orthogonalLoop=1;jettySize=auto;html=1;entryX=0.5;entryY=0;entryDx=0;entryDy=0;" edge="1" parent="1" source="62893188c0fa7362-1" target="62893188c0fa7362-2">
          <mxGeometry relative="1" as="geometry" />
        </mxCell>
        <mxCell id="oZu985MOciVJZe-gld0W-30" style="edgeStyle=orthogonalEdgeStyle;rounded=0;orthogonalLoop=1;jettySize=auto;html=1;entryX=0.5;entryY=0;entryDx=0;entryDy=0;" edge="1" parent="1" source="62893188c0fa7362-1" target="62893188c0fa7362-3">
          <mxGeometry relative="1" as="geometry" />
        </mxCell>
        <mxCell id="62893188c0fa7362-1" value="Rasulullah Saw." style="whiteSpace=wrap;html=1;rounded=1;shadow=1;labelBackgroundColor=none;strokeWidth=1;fontFamily=Verdana;fontSize=12;align=center;" parent="1" vertex="1">
          <mxGeometry x="610" y="50" width="120" height="60" as="geometry" />
        </mxCell>
        <mxCell id="oZu985MOciVJZe-gld0W-4" style="edgeStyle=orthogonalEdgeStyle;rounded=0;orthogonalLoop=1;jettySize=auto;html=1;entryX=0.5;entryY=0;entryDx=0;entryDy=0;" edge="1" parent="1" source="62893188c0fa7362-2" target="62893188c0fa7362-8">
          <mxGeometry relative="1" as="geometry" />
        </mxCell>
        <mxCell id="62893188c0fa7362-2" value="&lt;div style=&quot;&quot;&gt;Aisyah binti Abi Bakar Ash Shidiq&lt;/div&gt;" style="whiteSpace=wrap;html=1;rounded=1;shadow=1;labelBackgroundColor=none;strokeWidth=1;fontFamily=Verdana;fontSize=12;align=center;" parent="1" vertex="1">
          <mxGeometry x="430" y="170" width="120" height="60" as="geometry" />
        </mxCell>
        <mxCell id="oZu985MOciVJZe-gld0W-11" value="" style="edgeStyle=orthogonalEdgeStyle;rounded=0;orthogonalLoop=1;jettySize=auto;html=1;" edge="1" parent="1" source="62893188c0fa7362-3" target="oZu985MOciVJZe-gld0W-10">
          <mxGeometry relative="1" as="geometry" />
        </mxCell>
        <mxCell id="62893188c0fa7362-3" value="Abdullah bin Abbas bin Abdul Muthalib bin Hasyim" style="whiteSpace=wrap;html=1;rounded=1;shadow=1;labelBackgroundColor=none;strokeWidth=1;fontFamily=Verdana;fontSize=12;align=center;" parent="1" vertex="1">
          <mxGeometry x="780" y="170" width="120" height="60" as="geometry" />
        </mxCell>
        <mxCell id="oZu985MOciVJZe-gld0W-5" style="edgeStyle=orthogonalEdgeStyle;rounded=0;orthogonalLoop=1;jettySize=auto;html=1;" edge="1" parent="1" source="62893188c0fa7362-8" target="62893188c0fa7362-12">
          <mxGeometry relative="1" as="geometry" />
        </mxCell>
        <mxCell id="62893188c0fa7362-8" value="Atha bin Abi Rabbah Aslam" style="whiteSpace=wrap;html=1;rounded=1;shadow=1;labelBackgroundColor=none;strokeWidth=1;fontFamily=Verdana;fontSize=12;align=center;" parent="1" vertex="1">
          <mxGeometry x="320" y="270" width="120" height="60" as="geometry" />
        </mxCell>
        <mxCell id="oZu985MOciVJZe-gld0W-6" style="edgeStyle=orthogonalEdgeStyle;rounded=0;orthogonalLoop=1;jettySize=auto;html=1;entryX=0.5;entryY=0;entryDx=0;entryDy=0;" edge="1" parent="1" source="62893188c0fa7362-12" target="62893188c0fa7362-20">
          <mxGeometry relative="1" as="geometry" />
        </mxCell>
        <mxCell id="62893188c0fa7362-12" value="Abdullah bin Habib bin Abi Tsabit&amp;nbsp;" style="whiteSpace=wrap;html=1;rounded=1;shadow=1;labelBackgroundColor=none;strokeWidth=1;fontFamily=Verdana;fontSize=12;align=center;" parent="1" vertex="1">
          <mxGeometry x="320" y="365" width="120" height="60" as="geometry" />
        </mxCell>
        <mxCell id="oZu985MOciVJZe-gld0W-2" style="edgeStyle=orthogonalEdgeStyle;rounded=0;orthogonalLoop=1;jettySize=auto;html=1;" edge="1" parent="1" source="62893188c0fa7362-20" target="oZu985MOciVJZe-gld0W-1">
          <mxGeometry relative="1" as="geometry" />
        </mxCell>
        <mxCell id="62893188c0fa7362-20" value="Abdullah bin Abdur Rahman bin Abi Husain" style="whiteSpace=wrap;html=1;rounded=0;shadow=1;labelBackgroundColor=none;strokeWidth=2;fontFamily=Verdana;fontSize=12;align=center;" parent="1" vertex="1">
          <mxGeometry x="320" y="460" width="120" height="60" as="geometry" />
        </mxCell>
        <mxCell id="oZu985MOciVJZe-gld0W-8" value="" style="edgeStyle=orthogonalEdgeStyle;rounded=0;orthogonalLoop=1;jettySize=auto;html=1;" edge="1" parent="1" source="oZu985MOciVJZe-gld0W-1" target="oZu985MOciVJZe-gld0W-7">
          <mxGeometry relative="1" as="geometry" />
        </mxCell>
        <mxCell id="oZu985MOciVJZe-gld0W-1" value="Abdullah bin Numair" style="rounded=0;whiteSpace=wrap;html=1;" vertex="1" parent="1">
          <mxGeometry x="320" y="560" width="120" height="60" as="geometry" />
        </mxCell>
        <mxCell id="oZu985MOciVJZe-gld0W-39" style="edgeStyle=orthogonalEdgeStyle;orthogonalLoop=1;jettySize=auto;html=1;exitX=0.5;exitY=1;exitDx=0;exitDy=0;entryX=0.5;entryY=0;entryDx=0;entryDy=0;curved=1;" edge="1" parent="1" source="oZu985MOciVJZe-gld0W-7" target="oZu985MOciVJZe-gld0W-31">
          <mxGeometry relative="1" as="geometry">
            <mxPoint x="440" y="780" as="targetPoint" />
          </mxGeometry>
        </mxCell>
        <mxCell id="oZu985MOciVJZe-gld0W-7" value="Muhammad bin Abdullah bin Numair" style="whiteSpace=wrap;html=1;rounded=0;" vertex="1" parent="1">
          <mxGeometry x="320" y="660" width="120" height="60" as="geometry" />
        </mxCell>
        <mxCell id="oZu985MOciVJZe-gld0W-14" value="" style="edgeStyle=orthogonalEdgeStyle;rounded=0;orthogonalLoop=1;jettySize=auto;html=1;" edge="1" parent="1" source="oZu985MOciVJZe-gld0W-10" target="oZu985MOciVJZe-gld0W-13">
          <mxGeometry relative="1" as="geometry" />
        </mxCell>
        <mxCell id="oZu985MOciVJZe-gld0W-10" value="Thawus bin Kaisan" style="whiteSpace=wrap;html=1;fontFamily=Verdana;rounded=1;shadow=1;labelBackgroundColor=none;strokeWidth=1;" vertex="1" parent="1">
          <mxGeometry x="780" y="260" width="120" height="60" as="geometry" />
        </mxCell>
        <mxCell id="oZu985MOciVJZe-gld0W-17" value="" style="edgeStyle=orthogonalEdgeStyle;rounded=0;orthogonalLoop=1;jettySize=auto;html=1;" edge="1" parent="1" source="oZu985MOciVJZe-gld0W-13" target="oZu985MOciVJZe-gld0W-16">
          <mxGeometry relative="1" as="geometry" />
        </mxCell>
        <mxCell id="oZu985MOciVJZe-gld0W-13" value="Mujahid bin Jabbar" style="whiteSpace=wrap;html=1;fontFamily=Verdana;rounded=1;shadow=1;labelBackgroundColor=none;strokeWidth=1;" vertex="1" parent="1">
          <mxGeometry x="780" y="345" width="120" height="60" as="geometry" />
        </mxCell>
        <mxCell id="oZu985MOciVJZe-gld0W-19" value="" style="edgeStyle=orthogonalEdgeStyle;rounded=0;orthogonalLoop=1;jettySize=auto;html=1;" edge="1" parent="1" source="oZu985MOciVJZe-gld0W-16" target="oZu985MOciVJZe-gld0W-18">
          <mxGeometry relative="1" as="geometry" />
        </mxCell>
        <mxCell id="oZu985MOciVJZe-gld0W-25" value="" style="edgeStyle=orthogonalEdgeStyle;rounded=0;orthogonalLoop=1;jettySize=auto;html=1;" edge="1" parent="1" source="oZu985MOciVJZe-gld0W-16" target="oZu985MOciVJZe-gld0W-24">
          <mxGeometry relative="1" as="geometry" />
        </mxCell>
        <mxCell id="oZu985MOciVJZe-gld0W-44" value="" style="edgeStyle=orthogonalEdgeStyle;rounded=0;orthogonalLoop=1;jettySize=auto;html=1;" edge="1" parent="1" source="oZu985MOciVJZe-gld0W-16" target="oZu985MOciVJZe-gld0W-43">
          <mxGeometry relative="1" as="geometry" />
        </mxCell>
        <mxCell id="oZu985MOciVJZe-gld0W-16" value="Manshur bin Al Mu&#39;tamir" style="whiteSpace=wrap;html=1;fontFamily=Verdana;rounded=1;shadow=1;labelBackgroundColor=none;strokeWidth=1;" vertex="1" parent="1">
          <mxGeometry x="780" y="430" width="120" height="60" as="geometry" />
        </mxCell>
        <mxCell id="oZu985MOciVJZe-gld0W-22" value="" style="edgeStyle=orthogonalEdgeStyle;rounded=0;orthogonalLoop=1;jettySize=auto;html=1;" edge="1" parent="1" source="oZu985MOciVJZe-gld0W-18" target="oZu985MOciVJZe-gld0W-21">
          <mxGeometry relative="1" as="geometry" />
        </mxCell>
        <mxCell id="oZu985MOciVJZe-gld0W-18" value="Jarir bin Abdul Hamid bin Qarith" style="whiteSpace=wrap;html=1;fontFamily=Verdana;rounded=1;shadow=1;labelBackgroundColor=none;strokeWidth=1;" vertex="1" parent="1">
          <mxGeometry x="780" y="510" width="120" height="60" as="geometry" />
        </mxCell>
        <mxCell id="oZu985MOciVJZe-gld0W-40" style="edgeStyle=orthogonalEdgeStyle;orthogonalLoop=1;jettySize=auto;html=1;entryX=0.5;entryY=0;entryDx=0;entryDy=0;curved=1;" edge="1" parent="1" source="oZu985MOciVJZe-gld0W-21" target="oZu985MOciVJZe-gld0W-31">
          <mxGeometry relative="1" as="geometry">
            <Array as="points">
              <mxPoint x="840" y="720" />
              <mxPoint x="600" y="720" />
            </Array>
          </mxGeometry>
        </mxCell>
        <mxCell id="oZu985MOciVJZe-gld0W-21" value="Ustman bin Muhammad bin Ibrahim bin Ustman" style="whiteSpace=wrap;html=1;fontFamily=Verdana;rounded=1;shadow=1;labelBackgroundColor=none;strokeWidth=1;" vertex="1" parent="1">
          <mxGeometry x="780" y="590" width="120" height="60" as="geometry" />
        </mxCell>
        <mxCell id="oZu985MOciVJZe-gld0W-27" value="" style="edgeStyle=orthogonalEdgeStyle;rounded=0;orthogonalLoop=1;jettySize=auto;html=1;" edge="1" parent="1" source="oZu985MOciVJZe-gld0W-24" target="oZu985MOciVJZe-gld0W-26">
          <mxGeometry relative="1" as="geometry" />
        </mxCell>
        <mxCell id="oZu985MOciVJZe-gld0W-50" style="edgeStyle=orthogonalEdgeStyle;rounded=0;orthogonalLoop=1;jettySize=auto;html=1;exitX=1;exitY=0.5;exitDx=0;exitDy=0;entryX=0.5;entryY=0;entryDx=0;entryDy=0;elbow=vertical;curved=1;" edge="1" parent="1" source="oZu985MOciVJZe-gld0W-24" target="oZu985MOciVJZe-gld0W-48">
          <mxGeometry relative="1" as="geometry">
            <Array as="points">
              <mxPoint x="1070" y="540" />
              <mxPoint x="1070" y="800" />
              <mxPoint x="800" y="800" />
            </Array>
          </mxGeometry>
        </mxCell>
        <mxCell id="oZu985MOciVJZe-gld0W-24" value="Sufyan bin Sa&#39;id bin Maruq" style="whiteSpace=wrap;html=1;fontFamily=Verdana;rounded=1;shadow=1;labelBackgroundColor=none;strokeWidth=1;" vertex="1" parent="1">
          <mxGeometry x="930" y="510" width="120" height="60" as="geometry" />
        </mxCell>
        <mxCell id="oZu985MOciVJZe-gld0W-29" value="" style="edgeStyle=orthogonalEdgeStyle;rounded=0;orthogonalLoop=1;jettySize=auto;html=1;" edge="1" parent="1" source="oZu985MOciVJZe-gld0W-26" target="oZu985MOciVJZe-gld0W-28">
          <mxGeometry relative="1" as="geometry" />
        </mxCell>
        <mxCell id="oZu985MOciVJZe-gld0W-26" value="Yahya bin Sa&#39;id bin Farrukh" style="whiteSpace=wrap;html=1;fontFamily=Verdana;rounded=1;shadow=1;labelBackgroundColor=none;strokeWidth=1;" vertex="1" parent="1">
          <mxGeometry x="930" y="590" width="120" height="60" as="geometry" />
        </mxCell>
        <mxCell id="oZu985MOciVJZe-gld0W-41" style="edgeStyle=orthogonalEdgeStyle;orthogonalLoop=1;jettySize=auto;html=1;entryX=0.5;entryY=0;entryDx=0;entryDy=0;curved=1;" edge="1" parent="1" source="oZu985MOciVJZe-gld0W-28" target="oZu985MOciVJZe-gld0W-31">
          <mxGeometry relative="1" as="geometry">
            <Array as="points">
              <mxPoint x="990" y="760" />
              <mxPoint x="600" y="760" />
            </Array>
          </mxGeometry>
        </mxCell>
        <mxCell id="oZu985MOciVJZe-gld0W-28" value="Ali bin Abdullah bin Ja&#39;far bin Najih" style="whiteSpace=wrap;html=1;fontFamily=Verdana;rounded=1;shadow=1;labelBackgroundColor=none;strokeWidth=1;" vertex="1" parent="1">
          <mxGeometry x="930" y="680" width="120" height="60" as="geometry" />
        </mxCell>
        <mxCell id="oZu985MOciVJZe-gld0W-31" value="Imam Bukhari" style="rounded=1;whiteSpace=wrap;html=1;" vertex="1" parent="1">
          <mxGeometry x="540" y="860" width="120" height="60" as="geometry" />
        </mxCell>
        <mxCell id="oZu985MOciVJZe-gld0W-46" value="" style="edgeStyle=orthogonalEdgeStyle;rounded=0;orthogonalLoop=1;jettySize=auto;html=1;" edge="1" parent="1" source="oZu985MOciVJZe-gld0W-43" target="oZu985MOciVJZe-gld0W-45">
          <mxGeometry relative="1" as="geometry" />
        </mxCell>
        <mxCell id="oZu985MOciVJZe-gld0W-43" value="Ziyad bin Abdullah bin Ath Thufail" style="whiteSpace=wrap;html=1;fontFamily=Verdana;rounded=1;shadow=1;labelBackgroundColor=none;strokeWidth=1;" vertex="1" parent="1">
          <mxGeometry x="1090" y="510" width="120" height="60" as="geometry" />
        </mxCell>
        <mxCell id="oZu985MOciVJZe-gld0W-49" style="edgeStyle=orthogonalEdgeStyle;orthogonalLoop=1;jettySize=auto;html=1;entryX=0.5;entryY=0;entryDx=0;entryDy=0;strokeColor=default;curved=1;" edge="1" parent="1" source="oZu985MOciVJZe-gld0W-45" target="oZu985MOciVJZe-gld0W-48">
          <mxGeometry relative="1" as="geometry">
            <Array as="points">
              <mxPoint x="1150" y="810" />
              <mxPoint x="800" y="810" />
            </Array>
          </mxGeometry>
        </mxCell>
        <mxCell id="oZu985MOciVJZe-gld0W-45" value="Ahmad bin Abdah bin Musa" style="whiteSpace=wrap;html=1;fontFamily=Verdana;rounded=1;shadow=1;labelBackgroundColor=none;strokeWidth=1;" vertex="1" parent="1">
          <mxGeometry x="1090" y="590" width="120" height="60" as="geometry" />
        </mxCell>
        <mxCell id="oZu985MOciVJZe-gld0W-48" value="Imam At-Tirmidzi" style="rounded=1;whiteSpace=wrap;html=1;" vertex="1" parent="1">
          <mxGeometry x="740" y="860" width="120" height="60" as="geometry" />
        </mxCell>
      </root>
    </mxGraphModel>
  </diagram>
</mxfile>
